<svg width="11" height="6" viewBox="0 0 11 6" fill="none" xmlns="http://www.w3.org/2000/svg">
<g clip-path="url(#clip0_1121_2372)">
<path d="M2.93182 0.865885C2.80576 0.745828 2.63776 0.679812 2.46369 0.681934C2.28962 0.684057 2.12328 0.754149 2.00018 0.877245C1.87709 1.00034 1.807 1.16668 1.80487 1.34075C1.80275 1.51482 1.86877 1.68282 1.98882 1.80888L4.85083 4.67088C4.93831 4.75848 5.04221 4.82797 5.15657 4.87538C5.27094 4.92279 5.39352 4.9472 5.51733 4.9472C5.64113 4.9472 5.76371 4.92279 5.87808 4.87538C5.99244 4.82797 6.09634 4.75848 6.18382 4.67088L9.04482 1.80888C9.16488 1.68282 9.2309 1.51482 9.22878 1.34075C9.22665 1.16668 9.15656 1.00034 9.03347 0.877245C8.91037 0.754149 8.74403 0.684057 8.56996 0.681934C8.39589 0.679812 8.22788 0.745828 8.10182 0.865885L5.51682 3.44888L2.93182 0.865885Z" fill="#959699"/>
</g>
<defs>
<clipPath id="clip0_1121_2372">
<rect width="10" height="5" fill="white" transform="translate(0.51683 0.308899)"/>
</clipPath>
</defs>
</svg>
